<svg id="Capa_1" enable-background="new 0 0 512.262 512.262" height="512" viewBox="0 0 512.262 512.262" width="512" xmlns="http://www.w3.org/2000/svg"><g><path d="m306.745 136.226-14.43 4.1c-84.186 81.397-81.16 78.473-164.05 158.61v15c-6.264 0-4.955.08-6.7-.24-43.835-7.849-84.223-34.67-108.04-75.43l-13.26-22.71 26.3.14c99.634 0 160.367-107.138 110.81-191.93l-13.28-22.7c25.552.126 39.572-.659 60.17 4.04 55.305 12.547 101.244 54.322 117.03 111.95z" fill="#fc0"/><path d="m306.745 136.226-14.43 4.1-108.05 104.47v-239.69c55.305 12.547 101.244 54.322 117.03 111.95z" fill="#ff9e22"/><path d="m511.265 320.196c0 34.792-28.152 63-63 63h-252c-45.77 0-83-37.23-83-83 0-45.862 37.102-83 83-83h14.01c6.99-51.55 49.5-91.96 101.99-95.72 66.138-4.507 119 47.808 119 110.72v25h17c34.74 0 63 28.26 63 63z" fill="#e6f8fc"/><path d="m511.265 320.196c0 34.792-28.152 63-63 63h-136v-261.72c66.138-4.507 119 47.808 119 110.72v25h17c34.74 0 63 28.26 63 63z" fill="#cef2fb"/><g fill="#00607f"><path d="m0 305.196h30v30h-30z"/><path d="m.262 369.196h80v30h-80z"/><path d="m232.262 290.196h80v30h-80z"/><path d="m.262 433.196h200v30h-200z"/><path d="m232.265 417.196h200v30h-200z"/></g><path d="m360.262 481.196h152v30h-152z" fill="#00465f"/><path d="m312.265 417.196h120v30h-120z" fill="#00465f"/></g></svg>