<svg id="Capa_1" enable-background="new 0 0 511 511" height="512" viewBox="0 0 511 511" width="512" xmlns="http://www.w3.org/2000/svg"><g><path d="m208 258 73.33-121.15c-7.938-12.538-21.489-23.987-34.48-31.39 14.547-32.672-25.539 57.355 33.183-74.539l-27.406-12.202-33.654 75.589c-3.928-.979-7.925-1.749-11.973-2.298v-82.01h-30v82.02c-4.059.55-8.059 1.32-11.968 2.3-20.94-47.028 13.297 29.863-33.708-75.701l-27.406 12.203c16.369 36.76-14.068-31.605 33.253 74.688-3.48 1.99-6.84 4.16-10.07 6.5l-60.49-60.5-21.221 21.21 59.97 59.97c-2.81 3.52-5.419 7.199-7.799 11.048-24.046-9.229-61.048-23.431-77.516-29.752l-10.75 28.008c71.472 27.432 56.965 21.864 76.065 29.196-1.49 5.13-2.61 10.41-3.34 15.81h-82.02v30h82.01c.74 5.54 1.89 10.98 3.44 16.29-32.663 14.544-15.68 6.983-74.761 33.287l12.202 27.406 74.841-33.321c2.602 4.172 5.102 7.643 7.57 10.705l-59.908 59.908 21.213 21.213 67.882-67.882-6.319-6.32 2.271-2.387c71.817-16.573 57.018-13.158 77.559-17.899z" fill="#fc0"/><path d="m338.606 72.724-21.213-21.213-60.459 60.459c-3.328-2.405-6.724-4.595-10.085-6.51l33.183-74.539-27.406-12.202-33.646 75.591c-3.93-.98-7.93-1.75-11.98-2.3v-82.01h-14.77v251.64l15.77-3.64 73.33-121.15c-.865-1.366-1.807-2.716-2.797-4.052z" fill="#ff9e22"/><path d="m511 314c0 34.792-28.152 63-63 63h-252c-45.77 0-83-37.23-83-83 0-45.839 37.102-83 83-83h14.01c7.34-54.14 53.87-96 109.99-96 61.317 0 111 49.623 111 111v25h17c34.74 0 63 28.26 63 63z" fill="#00607f"/><path d="m511 314c0 34.792-28.152 63-63 63h-127v-261.99c60.793.519 110 49.893 110 110.99v25h17c34.74 0 63 28.26 63 63z" fill="#00465f"/><path d="m201 407h30v30h-30z" fill="#e6f8fc"/><path d="m261 407h30v30h-30z" fill="#e6f8fc"/><path d="m321 407h30v30h-30z" fill="#cef2fb"/><g fill="#e6f8fc"><path d="m171 471h30v30h-30z"/><path d="m231 471h30v30h-30z"/><path d="m291 471h30v30h-30z"/></g><path d="m381 407h30v30h-30z" fill="#cef2fb"/><path d="m351 471h30v30h-30z" fill="#cef2fb"/></g></svg>