<svg id="Capa_1" enable-background="new 0 0 510 510" height="512" viewBox="0 0 510 510" width="512" xmlns="http://www.w3.org/2000/svg"><g><path d="m376 312.139h30v64h-30z" fill="#00a9de"/><path d="m376 430.139h30v56h-30z" fill="#00a9de"/><path d="m312 430.139h30v56h-30z" fill="#00bff0"/><path d="m440 312.139h30v64h-30z" fill="#00a9de"/><path d="m440 430.139h30v56h-30z" fill="#00a9de"/><g fill="#00bff0"><path d="m64 256.139h30v64h-30z"/><path d="m64 366.139h30v56h-30z"/><path d="m128 286.139h30v72h-30z"/><path d="m128 404.139h30v56h-30z"/></g><path d="m309.4 75.239-13.84 5.79c-9.959 10.299-167.409 173.005-167.51 173.11v15h-45.05c-45.77 0-83-37.23-83-83 0-45.84 37.1-83 83-83h14.01c12.347-91.038 123.923-128.066 188.48-63.48 10.28 10.26 18.32 22.24 23.91 35.58z" fill="#00465f"/><path d="m309.4 75.239-13.84 5.79c-4.69 4.85-45.7 47.23-85.98 88.86 0-154.27-.07-162.33 0-162.73 45.751.765 83.706 29.624 99.82 68.08z" fill="#002c3c"/><path d="m510 262.139c0 34.792-28.152 63-63 63h-136v-15h-97.48v15h-18.52c-45.77 0-83-37.23-83-83 0-45.839 37.102-83 83-83h14.01c7.03-51.87 50.04-92.47 102.99-95.78 63.504-4.103 118 46.343 118 110.78v25h17c34.74 0 63 28.26 63 63z" fill="#00607f"/><path d="m510 262.139c0 34.792-28.152 63-63 63h-135v-261.78c63.504-4.103 118 46.343 118 110.78v25h17c34.74 0 63 28.26 63 63z" fill="#00465f"/><path d="m396.255 306.713c-54.615 49.415-58.064 71.438-84.256 95.135-76.135 68.884-59.807 54.109-111.65 101.01l20.68-113.72h-51.21l58.24-165.52h83.941l26.383 10.584-13.617 74.894z" fill="#fc0"/><path d="m429.94 295.139-117.94 106.71v-178.23h54.14l-32 71.52z" fill="#ff9e22"/></g></svg>